# Rhino

v 7.0100002288818359 0 -5.0100002288818359
v 7.0100002288818359 0 -10.010000228881836
v 7.1100001335144043 0 -5.0100002288818359
v 7.1100001335144043 0 -10.010000228881836
v 7.059999942779541 0 -5.0100002288818359
v 7.059999942779541 0 -5.2877779006958008
v 7.059999942779541 0 -5.1488890647888184
v 7.0349998474121094 0 -5.2877779006958008
v 7.0349998474121094 0 -5.1488890647888184
v 7.0850000381469727 0 -5.2877779006958008
v 7.0850000381469727 0 -5.1488890647888184
v 7.1100001335144043 0 -5.227391242980957
v 7.1100001335144043 0 -5.4447827339172363
v 7.1100001335144043 0 -5.6621737480163574
v 7.1100001335144043 0 -5.8795652389526367
v 7.1100001335144043 0 -6.096956729888916
v 7.1100001335144043 0 -6.3143477439880371
v 7.1100001335144043 0 -6.5317392349243164
v 7.1100001335144043 0 -6.7491302490234375
v 7.1100001335144043 0 -6.9665217399597168
v 7.1100001335144043 0 -7.1839132308959961
v 7.1100001335144043 0 -7.4013042449951172
v 7.1100001335144043 0 -7.6186957359313965
v 7.1100001335144043 0 -7.8360867500305176
v 7.1100001335144043 0 -8.0534782409667969
v 7.1100001335144043 0 -8.270869255065918
v 7.1100001335144043 0 -8.4882612228393555
v 7.1100001335144043 0 -8.7056522369384766
v 7.1100001335144043 0 -8.9230432510375977
v 7.1100001335144043 0 -9.1404352188110352
v 7.1100001335144043 0 -9.3578262329101563
v 7.1100001335144043 0 -9.5752172470092773
v 7.1100001335144043 0 -9.7926082611083984
v 7.059999942779541 0 -10.010000228881836
v 7.059999942779541 0 -9.7322225570678711
v 7.059999942779541 0 -9.8711109161376953
v 7.0850000381469727 0 -9.7322225570678711
v 7.0850000381469727 0 -9.8711109161376953
v 7.0349998474121094 0 -9.7322225570678711
v 7.0349998474121094 0 -9.8711109161376953
v 7.0100002288818359 0 -9.7926082611083984
v 7.0100002288818359 0 -9.5752172470092773
v 7.0100002288818359 0 -9.3578262329101563
v 7.0100002288818359 0 -9.1404352188110352
v 7.0100002288818359 0 -8.9230432510375977
v 7.0100002288818359 0 -8.7056522369384766
v 7.0100002288818359 0 -8.4882612228393555
v 7.0100002288818359 0 -8.270869255065918
v 7.0100002288818359 0 -8.0534782409667969
v 7.0100002288818359 0 -7.8360867500305176
v 7.0100002288818359 0 -7.6186957359313965
v 7.0100002288818359 0 -7.4013042449951172
v 7.0100002288818359 0 -7.1839132308959961
v 7.0100002288818359 0 -6.9665217399597168
v 7.0100002288818359 0 -6.7491302490234375
v 7.0100002288818359 0 -6.5317392349243164
v 7.0100002288818359 0 -6.3143477439880371
v 7.0100002288818359 0 -6.096956729888916
v 7.0100002288818359 0 -5.8795652389526367
v 7.0100002288818359 0 -5.6621737480163574
v 7.0100002288818359 0 -5.4447827339172363
v 7.0100002288818359 0 -5.227391242980957
v 7.0100002288818359 0.05000000074505806 -5.0100002288818359
v 7.1100001335144043 0.05000000074505806 -5.0100002288818359
v 7.059999942779541 0.05000000074505806 -5.0100002288818359
v 7.1100001335144043 0.05000000074505806 -10.010000228881836
v 7.1100001335144043 0.05000000074505806 -5.227391242980957
v 7.1100001335144043 0.05000000074505806 -5.4447827339172363
v 7.1100001335144043 0.05000000074505806 -5.6621737480163574
v 7.1100001335144043 0.05000000074505806 -5.8795652389526367
v 7.1100001335144043 0.05000000074505806 -6.096956729888916
v 7.1100001335144043 0.05000000074505806 -6.3143477439880371
v 7.1100001335144043 0.05000000074505806 -6.5317392349243164
v 7.1100001335144043 0.05000000074505806 -6.7491302490234375
v 7.1100001335144043 0.05000000074505806 -6.9665217399597168
v 7.1100001335144043 0.05000000074505806 -7.1839132308959961
v 7.1100001335144043 0.05000000074505806 -7.4013042449951172
v 7.1100001335144043 0.05000000074505806 -7.6186957359313965
v 7.1100001335144043 0.05000000074505806 -7.8360867500305176
v 7.1100001335144043 0.05000000074505806 -8.0534782409667969
v 7.1100001335144043 0.05000000074505806 -8.270869255065918
v 7.1100001335144043 0.05000000074505806 -8.4882612228393555
v 7.1100001335144043 0.05000000074505806 -8.7056522369384766
v 7.1100001335144043 0.05000000074505806 -8.9230432510375977
v 7.1100001335144043 0.05000000074505806 -9.1404352188110352
v 7.1100001335144043 0.05000000074505806 -9.3578262329101563
v 7.1100001335144043 0.05000000074505806 -9.5752172470092773
v 7.1100001335144043 0.05000000074505806 -9.7926082611083984
v 7.0100002288818359 0.05000000074505806 -10.010000228881836
v 7.059999942779541 0.05000000074505806 -10.010000228881836
v 7.0100002288818359 0.05000000074505806 -9.7926082611083984
v 7.0100002288818359 0.05000000074505806 -9.5752172470092773
v 7.0100002288818359 0.05000000074505806 -9.3578262329101563
v 7.0100002288818359 0.05000000074505806 -9.1404352188110352
v 7.0100002288818359 0.05000000074505806 -8.9230432510375977
v 7.0100002288818359 0.05000000074505806 -8.7056522369384766
v 7.0100002288818359 0.05000000074505806 -8.4882612228393555
v 7.0100002288818359 0.05000000074505806 -8.270869255065918
v 7.0100002288818359 0.05000000074505806 -8.0534782409667969
v 7.0100002288818359 0.05000000074505806 -7.8360867500305176
v 7.0100002288818359 0.05000000074505806 -7.6186957359313965
v 7.0100002288818359 0.05000000074505806 -7.4013042449951172
v 7.0100002288818359 0.05000000074505806 -7.1839132308959961
v 7.0100002288818359 0.05000000074505806 -6.9665217399597168
v 7.0100002288818359 0.05000000074505806 -6.7491302490234375
v 7.0100002288818359 0.05000000074505806 -6.5317392349243164
v 7.0100002288818359 0.05000000074505806 -6.3143477439880371
v 7.0100002288818359 0.05000000074505806 -6.096956729888916
v 7.0100002288818359 0.05000000074505806 -5.8795652389526367
v 7.0100002288818359 0.05000000074505806 -5.6621737480163574
v 7.0100002288818359 0.05000000074505806 -5.4447827339172363
v 7.0100002288818359 0.05000000074505806 -5.227391242980957
v 7.059999942779541 0.05000000074505806 -5.2877779006958008
v 7.059999942779541 0.05000000074505806 -5.1488890647888184
v 7.0349998474121094 0.05000000074505806 -5.2877779006958008
v 7.0349998474121094 0.05000000074505806 -5.1488890647888184
v 7.0850000381469727 0.05000000074505806 -5.2877779006958008
v 7.0850000381469727 0.05000000074505806 -5.1488890647888184
v 7.059999942779541 0.05000000074505806 -9.7322225570678711
v 7.059999942779541 0.05000000074505806 -9.8711109161376953
v 7.0850000381469727 0.05000000074505806 -9.7322225570678711
v 7.0850000381469727 0.05000000074505806 -9.8711109161376953
v 7.0349998474121094 0.05000000074505806 -9.7322225570678711
v 7.0349998474121094 0.05000000074505806 -9.8711109161376953
vt 0.99853515625 0.65359479188919067
vt 0.019607843831181526 0.65359479188919067
vt 0.99853515625 0.67320263385772705
vt 0.019607843831181526 0.67320263385772705
vt 0.99853515625 0.66339868307113647
vt 0.94415032863616943 0.66339868307113647
vt 0.97134274244308472 0.66339868307113647
vt 0.94415032863616943 0.65849673748016357
vt 0.97134274244308472 0.65849673748016357
vt 0.94415032863616943 0.66830062866210938
vt 0.97134274244308472 0.66830062866210938
vt 0.95597308874130249 0.67320263385772705
vt 0.91341102123260498 0.67320263385772705
vt 0.87084901332855225 0.67320263385772705
vt 0.82828694581985474 0.67320263385772705
vt 0.78572487831115723 0.67320263385772705
vt 0.74316281080245972 0.67320263385772705
vt 0.70060074329376221 0.67320263385772705
vt 0.6580386757850647 0.67320263385772705
vt 0.61547666788101196 0.67320263385772705
vt 0.57291460037231445 0.67320263385772705
vt 0.53035253286361694 0.67320263385772705
vt 0.48779046535491943 0.67320263385772705
vt 0.44522842764854431 0.67320263385772705
vt 0.40266638994216919 0.67320263385772705
vt 0.3601042628288269 0.67320263385772705
vt 0.31754222512245178 0.67320263385772705
vt 0.27498018741607666 0.67320263385772705
vt 0.23241813480854034 0.67320263385772705
vt 0.18985608220100403 0.67320263385772705
vt 0.14729404449462891 0.67320263385772705
vt 0.10473193973302841 0.67320263385772705
vt 0.062169890850782394 0.67320263385772705
vt 0.019607843831181526 0.66339868307113647
vt 0.073992721736431122 0.66339868307113647
vt 0.046800281852483749 0.66339868307113647
vt 0.073992721736431122 0.66830062866210938
vt 0.046800281852483749 0.66830062866210938
vt 0.073992721736431122 0.65849673748016357
vt 0.046800281852483749 0.65849673748016357
vt 0.062169890850782394 0.65359479188919067
vt 0.10473193973302841 0.65359479188919067
vt 0.14729404449462891 0.65359479188919067
vt 0.18985608220100403 0.65359479188919067
vt 0.23241813480854034 0.65359479188919067
vt 0.27498018741607666 0.65359479188919067
vt 0.31754222512245178 0.65359479188919067
vt 0.3601042628288269 0.65359479188919067
vt 0.40266638994216919 0.65359479188919067
vt 0.44522842764854431 0.65359479188919067
vt 0.48779046535491943 0.65359479188919067
vt 0.53035253286361694 0.65359479188919067
vt 0.57291460037231445 0.65359479188919067
vt 0.61547666788101196 0.65359479188919067
vt 0.6580386757850647 0.65359479188919067
vt 0.70060074329376221 0.65359479188919067
vt 0.74316281080245972 0.65359479188919067
vt 0.78572487831115723 0.65359479188919067
vt 0.82828694581985474 0.65359479188919067
vt 0.87084901332855225 0.65359479188919067
vt 0.91341102123260498 0.65359479188919067
vt 0.95597308874130249 0.65359479188919067
vt 0.50980395078659058 0
vt 0.50980395078659058 0.019607843831181526
vt 0.51960784196853638 0
vt 0.51960784196853638 0.019607843831181526
vt 0.50980395078659058 0.0098039219155907631
vt 0.51960784196853638 0.0098039219155907631
vt 0.0098039219155907631 0
vt 0.0098039219155907631 0.97892731428146362
vt 0.018143000081181526 0
vt 0.018143000081181526 0.97892731428146362
vt 0.0098039219155907631 0.93636524677276611
vt 0.0098039219155907631 0.89380323886871338
vt 0.0098039219155907631 0.85124111175537109
vt 0.0098039219155907631 0.80867904424667358
vt 0.0098039219155907631 0.76611703634262085
vt 0.0098039219155907631 0.72355496883392334
vt 0.0098039219155907631 0.68099290132522583
vt 0.0098039219155907631 0.6384308934211731
vt 0.0098039219155907631 0.59586876630783081
vt 0.0098039219155907631 0.5533066987991333
vt 0.0098039219155907631 0.51074469089508057
vt 0.0098039219155907631 0.46818262338638306
vt 0.0098039219155907631 0.42562055587768555
vt 0.0098039219155907631 0.38305851817131042
vt 0.0098039219155907631 0.34049645066261292
vt 0.0098039219155907631 0.29793438315391541
vt 0.0098039219155907631 0.25537234544754028
vt 0.0098039219155907631 0.21281027793884277
vt 0.0098039219155907631 0.17024822533130646
vt 0.0098039219155907631 0.12768617272377014
vt 0.0098039219155907631 0.085124112665653229
vt 0.0098039219155907631 0.042562056332826614
vt 0.018143000081181526 0.042562056332826614
vt 0.018143000081181526 0.085124112665653229
vt 0.018143000081181526 0.12768617272377014
vt 0.018143000081181526 0.17024822533130646
vt 0.018143000081181526 0.21281027793884277
vt 0.018143000081181526 0.25537234544754028
vt 0.018143000081181526 0.29793438315391541
vt 0.018143000081181526 0.34049645066261292
vt 0.018143000081181526 0.38305851817131042
vt 0.018143000081181526 0.42562055587768555
vt 0.018143000081181526 0.46818262338638306
vt 0.018143000081181526 0.51074469089508057
vt 0.018143000081181526 0.5533066987991333
vt 0.018143000081181526 0.59586876630783081
vt 0.018143000081181526 0.6384308934211731
vt 0.018143000081181526 0.68099290132522583
vt 0.018143000081181526 0.72355496883392334
vt 0.018143000081181526 0.76611703634262085
vt 0.018143000081181526 0.80867904424667358
vt 0.018143000081181526 0.85124111175537109
vt 0.018143000081181526 0.89380323886871338
vt 0.018143000081181526 0.93636524677276611
vt 0.019607843831181526 0
vt 0.019607843831181526 0.019607843831181526
vt 0.029411764815449715 0
vt 0.029411764815449715 0.019607843831181526
vt 0.019607843831181526 0.0098039219155907631
vt 0.029411764815449715 0.0098039219155907631
vt 0 0
vt 0 0.97892731428146362
vt 0.0083390781655907631 0
vt 0.0083390781655907631 0.97892731428146362
vt 0 0.93636524677276611
vt 0 0.89380323886871338
vt 0 0.85124111175537109
vt 0 0.80867904424667358
vt 0 0.76611703634262085
vt 0 0.72355496883392334
vt 0 0.68099290132522583
vt 0 0.6384308934211731
vt 0 0.59586876630783081
vt 0 0.5533066987991333
vt 0 0.51074469089508057
vt 0 0.46818262338638306
vt 0 0.42562055587768555
vt 0 0.38305851817131042
vt 0 0.34049645066261292
vt 0 0.29793438315391541
vt 0 0.25537234544754028
vt 0 0.21281027793884277
vt 0 0.17024822533130646
vt 0 0.12768617272377014
vt 0 0.085124112665653229
vt 0 0.042562056332826614
vt 0.0083390781655907631 0.042562056332826614
vt 0.0083390781655907631 0.085124112665653229
vt 0.0083390781655907631 0.12768617272377014
vt 0.0083390781655907631 0.17024822533130646
vt 0.0083390781655907631 0.21281027793884277
vt 0.0083390781655907631 0.25537234544754028
vt 0.0083390781655907631 0.29793438315391541
vt 0.0083390781655907631 0.34049645066261292
vt 0.0083390781655907631 0.38305851817131042
vt 0.0083390781655907631 0.42562055587768555
vt 0.0083390781655907631 0.46818262338638306
vt 0.0083390781655907631 0.51074469089508057
vt 0.0083390781655907631 0.5533066987991333
vt 0.0083390781655907631 0.59586876630783081
vt 0.0083390781655907631 0.6384308934211731
vt 0.0083390781655907631 0.68099290132522583
vt 0.0083390781655907631 0.72355496883392334
vt 0.0083390781655907631 0.76611703634262085
vt 0.0083390781655907631 0.80867904424667358
vt 0.0083390781655907631 0.85124111175537109
vt 0.0083390781655907631 0.89380323886871338
vt 0.0083390781655907631 0.93636524677276611
vt 0.99853515625 0.32679739594459534
vt 0.019607843831181526 0.32679739594459534
vt 0.99853515625 0.34640523791313171
vt 0.019607843831181526 0.34640523791313171
vt 0.99853515625 0.33660131692886353
vt 0.94415032863616943 0.33660131692886353
vt 0.97134274244308472 0.33660131692886353
vt 0.94415032863616943 0.33169934153556824
vt 0.97134274244308472 0.33169934153556824
vt 0.94415032863616943 0.34150326251983643
vt 0.97134274244308472 0.34150326251983643
vt 0.95597308874130249 0.34640523791313171
vt 0.91341102123260498 0.34640523791313171
vt 0.87084901332855225 0.34640523791313171
vt 0.82828694581985474 0.34640523791313171
vt 0.78572487831115723 0.34640523791313171
vt 0.74316281080245972 0.34640523791313171
vt 0.70060074329376221 0.34640523791313171
vt 0.6580386757850647 0.34640523791313171
vt 0.61547666788101196 0.34640523791313171
vt 0.57291460037231445 0.34640523791313171
vt 0.53035253286361694 0.34640523791313171
vt 0.48779046535491943 0.34640523791313171
vt 0.44522842764854431 0.34640523791313171
vt 0.40266638994216919 0.34640523791313171
vt 0.3601042628288269 0.34640523791313171
vt 0.31754222512245178 0.34640523791313171
vt 0.27498018741607666 0.34640523791313171
vt 0.23241813480854034 0.34640523791313171
vt 0.18985608220100403 0.34640523791313171
vt 0.14729404449462891 0.34640523791313171
vt 0.10473193973302841 0.34640523791313171
vt 0.062169890850782394 0.34640523791313171
vt 0.019607843831181526 0.33660131692886353
vt 0.073992721736431122 0.33660131692886353
vt 0.046800281852483749 0.33660131692886353
vt 0.073992721736431122 0.34150326251983643
vt 0.046800281852483749 0.34150326251983643
vt 0.073992721736431122 0.33169934153556824
vt 0.046800281852483749 0.33169934153556824
vt 0.062169890850782394 0.32679739594459534
vt 0.10473193973302841 0.32679739594459534
vt 0.14729404449462891 0.32679739594459534
vt 0.18985608220100403 0.32679739594459534
vt 0.23241813480854034 0.32679739594459534
vt 0.27498018741607666 0.32679739594459534
vt 0.31754222512245178 0.32679739594459534
vt 0.3601042628288269 0.32679739594459534
vt 0.40266638994216919 0.32679739594459534
vt 0.44522842764854431 0.32679739594459534
vt 0.48779046535491943 0.32679739594459534
vt 0.53035253286361694 0.32679739594459534
vt 0.57291460037231445 0.32679739594459534
vt 0.61547666788101196 0.32679739594459534
vt 0.6580386757850647 0.32679739594459534
vt 0.70060074329376221 0.32679739594459534
vt 0.74316281080245972 0.32679739594459534
vt 0.78572487831115723 0.32679739594459534
vt 0.82828694581985474 0.32679739594459534
vt 0.87084901332855225 0.32679739594459534
vt 0.91341102123260498 0.32679739594459534
vt 0.95597308874130249 0.32679739594459534
vn 0 -1 0
vn 0 -1 0
vn 0 -1 0
vn 0 -1 0
vn 0 -1 0
vn 0 -1 0
vn 0 -1 0
vn 0 -1 0
vn 0 -1 0
vn 0 -1 0
vn 0 -1 0
vn 0 -1 0
vn 0 -1 0
vn 0 -1 0
vn 0 -1 0
vn 0 -1 0
vn 0 -1 0
vn 0 -1 0
vn 0 -1 0
vn 0 -1 0
vn 0 -1 0
vn 0 -1 0
vn 0 -1 0
vn 0 -1 0
vn 0 -1 0
vn 0 -1 0
vn 0 -1 0
vn 0 -1 0
vn 0 -1 0
vn 0 -1 0
vn 0 -1 0
vn 0 -1 0
vn 0 -1 0
vn 0 -1 0
vn 0 -1 0
vn 0 -1 0
vn 0 -1 0
vn 0 -1 0
vn 0 -1 0
vn 0 -1 0
vn 0 -1 0
vn 0 -1 0
vn 0 -1 0
vn 0 -1 0
vn 0 -1 0
vn 0 -1 0
vn 0 -1 0
vn 0 -1 0
vn 0 -1 0
vn 0 -1 0
vn 0 -1 0
vn 0 -1 0
vn 0 -1 0
vn 0 -1 0
vn 0 -1 0
vn 0 -1 0
vn 0 -1 0
vn 0 -1 0
vn 0 -1 0
vn 0 -1 0
vn 0 -1 0
vn 0 -1 0
vn 0 0 1
vn 0 0 1
vn 0 0 1
vn 0 0 1
vn 0 0 1
vn 0 0 1
vn 1 0 0
vn 1 0 0
vn 1 0 0
vn 1 0 0
vn 1 0 0
vn 1 0 0
vn 1 0 0
vn 1 0 0
vn 1 0 0
vn 1 0 0
vn 1 0 0
vn 1 0 0
vn 1 0 0
vn 1 0 0
vn 1 0 0
vn 1 0 0
vn 1 0 0
vn 1 0 0
vn 1 0 0
vn 1 0 0
vn 1 0 0
vn 1 0 0
vn 1 0 0
vn 1 0 0
vn 1 0 0
vn 1 0 0
vn 1 0 0
vn 1 0 0
vn 1 0 0
vn 1 0 0
vn 1 0 0
vn 1 0 0
vn 1 0 0
vn 1 0 0
vn 1 0 0
vn 1 0 0
vn 1 0 0
vn 1 0 0
vn 1 0 0
vn 1 0 0
vn 1 0 0
vn 1 0 0
vn 1 0 0
vn 1 0 0
vn 1 0 0
vn 1 0 0
vn 1 0 0
vn 1 0 0
vn 0 0 -1
vn 0 0 -1
vn 0 0 -1
vn 0 0 -1
vn 0 0 -1
vn 0 0 -1
vn -1 0 0
vn -1 0 0
vn -1 0 0
vn -1 0 0
vn -1 0 0
vn -1 0 0
vn -1 0 0
vn -1 0 0
vn -1 0 0
vn -1 0 0
vn -1 0 0
vn -1 0 0
vn -1 0 0
vn -1 0 0
vn -1 0 0
vn -1 0 0
vn -1 0 0
vn -1 0 0
vn -1 0 0
vn -1 0 0
vn -1 0 0
vn -1 0 0
vn -1 0 0
vn -1 0 0
vn -1 0 0
vn -1 0 0
vn -1 0 0
vn -1 0 0
vn -1 0 0
vn -1 0 0
vn -1 0 0
vn -1 0 0
vn -1 0 0
vn -1 0 0
vn -1 0 0
vn -1 0 0
vn -1 0 0
vn -1 0 0
vn -1 0 0
vn -1 0 0
vn -1 0 0
vn -1 0 0
vn -1 0 0
vn -1 0 0
vn -1 0 0
vn -1 0 0
vn -1 0 0
vn -1 0 0
vn 0 1 0
vn 0 1 0
vn 0 1 0
vn 0 1 0
vn 0 1 0
vn 0 1 0
vn 0 1 0
vn 0 1 0
vn 0 1 0
vn 0 1 0
vn 0 1 0
vn 0 1 0
vn 0 1 0
vn 0 1 0
vn 0 1 0
vn 0 1 0
vn 0 1 0
vn 0 1 0
vn 0 1 0
vn 0 1 0
vn 0 1 0
vn 0 1 0
vn 0 1 0
vn 0 1 0
vn 0 1 0
vn 0 1 0
vn 0 1 0
vn 0 1 0
vn 0 1 0
vn 0 1 0
vn 0 1 0
vn 0 1 0
vn 0 1 0
vn 0 1 0
vn 0 1 0
vn 0 1 0
vn 0 1 0
vn 0 1 0
vn 0 1 0
vn 0 1 0
vn 0 1 0
vn 0 1 0
vn 0 1 0
vn 0 1 0
vn 0 1 0
vn 0 1 0
vn 0 1 0
vn 0 1 0
vn 0 1 0
vn 0 1 0
vn 0 1 0
vn 0 1 0
vn 0 1 0
vn 0 1 0
vn 0 1 0
vn 0 1 0
vn 0 1 0
vn 0 1 0
vn 0 1 0
vn 0 1 0
vn 0 1 0
vn 0 1 0
f 6/6/6 7/7/7 9/9/9 8/8/8
f 10/10/10 11/11/11 7/7/7 6/6/6
f 38/38/38 37/37/37 35/35/35 36/36/36
f 36/36/36 35/35/35 39/39/39 40/40/40
f 9/9/9 1/1/1 62/62/62
f 8/8/8 62/62/62 61/61/61
f 59/59/59 15/15/15 14/14/14 60/60/60
f 57/57/57 17/17/17 16/16/16 58/58/58
f 58/58/58 16/16/16 15/15/15 59/59/59
f 60/60/60 6/6/6 61/61/61
f 8/8/8 61/61/61 6/6/6
f 9/9/9 7/7/7 5/5/5
f 11/11/11 5/5/5 7/7/7
f 5/5/5 1/1/1 9/9/9
f 55/55/55 19/19/19 18/18/18 56/56/56
f 53/53/53 21/21/21 20/20/20 54/54/54
f 54/54/54 20/20/20 19/19/19 55/55/55
f 56/56/56 18/18/18 17/17/17 57/57/57
f 9/9/9 62/62/62 8/8/8
f 52/52/52 22/22/22 21/21/21 53/53/53
f 50/50/50 24/24/24 23/23/23 51/51/51
f 51/51/51 23/23/23 22/22/22 52/52/52
f 47/47/47 27/27/27 26/26/26 48/48/48
f 45/45/45 29/29/29 28/28/28 46/46/46
f 46/46/46 28/28/28 27/27/27 47/47/47
f 48/48/48 26/26/26 25/25/25 49/49/49
f 43/43/43 31/31/31 30/30/30 44/44/44
f 35/35/35 42/42/42 39/39/39
f 35/35/35 43/43/43 42/42/42
f 40/40/40 41/41/41 2/2/2
f 41/41/41 40/40/40 39/39/39
f 39/39/39 42/42/42 41/41/41
f 34/34/34 40/40/40 2/2/2
f 44/44/44 30/30/30 29/29/29 45/45/45
f 49/49/49 25/25/25 24/24/24 50/50/50
f 60/60/60 14/14/14 6/6/6
f 12/12/12 3/3/3 11/11/11
f 5/5/5 11/11/11 3/3/3
f 10/10/10 12/12/12 11/11/11
f 6/6/6 14/14/14 13/13/13
f 12/12/12 10/10/10 13/13/13
f 6/6/6 13/13/13 10/10/10
f 32/32/32 35/35/35 37/37/37
f 40/40/40 34/34/34 36/36/36
f 38/38/38 36/36/36 34/34/34
f 37/37/37 38/38/38 33/33/33
f 4/4/4 38/38/38 34/34/34
f 35/35/35 32/32/32 31/31/31
f 38/38/38 4/4/4 33/33/33
f 37/37/37 33/33/33 32/32/32
f 43/43/43 35/35/35 31/31/31
f 5/67/67 65/68/68 63/65/65 1/63/63
f 3/64/64 64/66/66 65/68/68 5/67/67
f 12/94/94 67/95/95 64/71/71 3/69/69
f 13/93/93 68/96/96 67/95/95 12/94/94
f 15/91/91 70/98/98 69/97/97 14/92/92
f 16/90/90 71/99/99 70/98/98 15/91/91
f 14/92/92 69/97/97 68/96/96 13/93/93
f 18/88/88 73/101/101 72/100/100 17/89/89
f 19/87/87 74/102/102 73/101/101 18/88/88
f 21/85/85 76/104/104 75/103/103 20/86/86
f 22/84/84 77/105/105 76/104/104 21/85/85
f 20/86/86 75/103/103 74/102/102 19/87/87
f 17/89/89 72/100/100 71/99/99 16/90/90
f 24/82/82 79/107/107 78/106/106 23/83/83
f 25/81/81 80/108/108 79/107/107 24/82/82
f 27/79/79 82/110/110 81/109/109 26/80/80
f 28/78/78 83/111/111 82/110/110 27/79/79
f 26/80/80 81/109/109 80/108/108 25/81/81
f 30/76/76 85/113/113 84/112/112 29/77/77
f 31/75/75 86/114/114 85/113/113 30/76/76
f 33/73/73 88/116/116 87/115/115 32/74/74
f 4/70/70 66/72/72 88/116/116 33/73/73
f 32/74/74 87/115/115 86/114/114 31/75/75
f 29/77/77 84/112/112 83/111/111 28/78/78
f 23/83/83 78/106/106 77/105/105 22/84/84
f 34/121/121 90/122/122 66/119/119 4/117/117
f 2/118/118 89/120/120 90/122/122 34/121/121
f 41/148/148 91/149/149 89/125/125 2/123/123
f 42/147/147 92/150/150 91/149/149 41/148/148
f 44/145/145 94/152/152 93/151/151 43/146/146
f 45/144/144 95/153/153 94/152/152 44/145/145
f 43/146/146 93/151/151 92/150/150 42/147/147
f 47/142/142 97/155/155 96/154/154 46/143/143
f 48/141/141 98/156/156 97/155/155 47/142/142
f 50/139/139 100/158/158 99/157/157 49/140/140
f 51/138/138 101/159/159 100/158/158 50/139/139
f 49/140/140 99/157/157 98/156/156 48/141/141
f 46/143/143 96/154/154 95/153/153 45/144/144
f 53/136/136 103/161/161 102/160/160 52/137/137
f 54/135/135 104/162/162 103/161/161 53/136/136
f 56/133/133 106/164/164 105/163/163 55/134/134
f 57/132/132 107/165/165 106/164/164 56/133/133
f 55/134/134 105/163/163 104/162/162 54/135/135
f 59/130/130 109/167/167 108/166/166 58/131/131
f 60/129/129 110/168/168 109/167/167 59/130/130
f 62/127/127 112/170/170 111/169/169 61/128/128
f 1/124/124 63/126/126 112/170/170 62/127/127
f 61/128/128 111/169/169 110/168/168 60/129/129
f 58/131/131 108/166/166 107/165/165 57/132/132
f 52/137/137 102/160/160 101/159/159 51/138/138
f 113/176/176 115/178/178 116/179/179 114/177/177
f 117/180/180 113/176/176 114/177/177 118/181/181
f 122/208/208 120/206/206 119/205/205 121/207/207
f 120/206/206 124/210/210 123/209/209 119/205/205
f 116/179/179 112/232/232 63/171/171
f 115/178/178 111/231/231 112/232/232
f 109/229/229 110/230/230 69/184/184 70/185/185
f 107/227/227 108/228/228 71/186/186 72/187/187
f 108/228/228 109/229/229 70/185/185 71/186/186
f 110/230/230 111/231/231 113/176/176
f 115/178/178 113/176/176 111/231/231
f 116/179/179 65/175/175 114/177/177
f 118/181/181 114/177/177 65/175/175
f 65/175/175 116/179/179 63/171/171
f 105/225/225 106/226/226 73/188/188 74/189/189
f 103/223/223 104/224/224 75/190/190 76/191/191
f 104/224/224 105/225/225 74/189/189 75/190/190
f 106/226/226 107/227/227 72/187/187 73/188/188
f 116/179/179 115/178/178 112/232/232
f 102/222/222 103/223/223 76/191/191 77/192/192
f 100/220/220 101/221/221 78/193/193 79/194/194
f 101/221/221 102/222/222 77/192/192 78/193/193
f 97/217/217 98/218/218 81/196/196 82/197/197
f 95/215/215 96/216/216 83/198/198 84/199/199
f 96/216/216 97/217/217 82/197/197 83/198/198
f 98/218/218 99/219/219 80/195/195 81/196/196
f 93/213/213 94/214/214 85/200/200 86/201/201
f 119/205/205 123/209/209 92/212/212
f 119/205/205 92/212/212 93/213/213
f 124/210/210 89/172/172 91/211/211
f 91/211/211 123/209/209 124/210/210
f 123/209/209 91/211/211 92/212/212
f 90/204/204 89/172/172 124/210/210
f 94/214/214 95/215/215 84/199/199 85/200/200
f 99/219/219 100/220/220 79/194/194 80/195/195
f 110/230/230 113/176/176 69/184/184
f 67/182/182 118/181/181 64/173/173
f 65/175/175 64/173/173 118/181/181
f 117/180/180 118/181/181 67/182/182
f 113/176/176 68/183/183 69/184/184
f 67/182/182 68/183/183 117/180/180
f 113/176/176 117/180/180 68/183/183
f 87/202/202 121/207/207 119/205/205
f 124/210/210 120/206/206 90/204/204
f 122/208/208 90/204/204 120/206/206
f 121/207/207 88/203/203 122/208/208
f 66/174/174 90/204/204 122/208/208
f 119/205/205 86/201/201 87/202/202
f 122/208/208 88/203/203 66/174/174
f 121/207/207 87/202/202 88/203/203
f 93/213/213 86/201/201 119/205/205
